<svg height="480pt" viewBox="0 0 480 480" width="480pt" xmlns="http://www.w3.org/2000/svg" xmlns:xlink="http://www.w3.org/1999/xlink"><linearGradient id="a"><stop offset="0" stop-color="#fff33b"/><stop offset=".014" stop-color="#fee72e"/><stop offset=".042" stop-color="#fed51b"/><stop offset=".07" stop-color="#fdca10"/><stop offset=".1" stop-color="#fdc70c"/><stop offset=".4" stop-color="#f3903f"/><stop offset=".8" stop-color="#ed683c"/><stop offset="1" stop-color="#e93e3a"/></linearGradient><linearGradient id="b" gradientUnits="userSpaceOnUse" x1="240" x2="240" xlink:href="#a" y1="-15.672" y2="500.408"/><linearGradient id="c" gradientUnits="userSpaceOnUse" x1="64" x2="64" xlink:href="#a" y1="-17.024" y2="498.992"/><linearGradient id="d" gradientUnits="userSpaceOnUse" x1="96" x2="96" xlink:href="#a" y1="-16.904" y2="499.112"/><linearGradient id="e" gradientUnits="userSpaceOnUse" x1="128" x2="128" xlink:href="#a" y1="-16.776" y2="499.24"/><linearGradient id="f" gradientUnits="userSpaceOnUse" x1="424" x2="424" xlink:href="#a" y1="-15.64" y2="500.376"/><linearGradient id="g" gradientUnits="userSpaceOnUse" x1="240" x2="240" xlink:href="#a" y1="-14.848" y2="490.48"/><linearGradient id="h" gradientUnits="userSpaceOnUse" x1="152" x2="152" xlink:href="#a" y1="-16.776" y2="500.728"/><linearGradient id="i" gradientUnits="userSpaceOnUse" x1="152" x2="152" xlink:href="#a" y1="-16.304" y2="500.376"/><linearGradient id="j" gradientUnits="userSpaceOnUse" x1="288" x2="288" xlink:href="#a" y1="-15.088" y2="498.952"/><linearGradient id="k" gradientUnits="userSpaceOnUse" x1="288" x2="288" xlink:href="#a" y1="-14.84" y2="499.192"/><linearGradient id="l" gradientUnits="userSpaceOnUse" x1="288" x2="288" xlink:href="#a" y1="-14.6" y2="499.44"/><linearGradient id="m" gradientUnits="userSpaceOnUse" x1="336" x2="336" xlink:href="#a" y1="-8.096" y2="494.392"/><linearGradient id="n" gradientUnits="userSpaceOnUse" x1="336" x2="336" xlink:href="#a" y1="-7.136" y2="495.352"/><linearGradient id="o" gradientUnits="userSpaceOnUse" x1="336" x2="336" xlink:href="#a" y1="-6.176" y2="496.304"/><linearGradient id="p" gradientUnits="userSpaceOnUse" x1="360" x2="360" xlink:href="#a" y1="-11.616" y2="496.584"/><linearGradient id="q" gradientUnits="userSpaceOnUse" x1="360" x2="360" xlink:href="#a" y1="-12.216" y2="495.976"/><linearGradient id="r" gradientUnits="userSpaceOnUse" x1="360" x2="360" xlink:href="#a" y1="-12.824" y2="495.368"/><linearGradient id="s" gradientUnits="userSpaceOnUse" x1="240" x2="240" xlink:href="#a" y1="10.376" y2="491.248"/><linearGradient id="t" gradientUnits="userSpaceOnUse" x1="240" x2="240" xlink:href="#a" y1="14.96" y2="495.832"/><linearGradient id="u" gradientUnits="userSpaceOnUse" x1="240" x2="240" xlink:href="#a" y1="12.664" y2="493.544"/><path d="m472 0h-464c-4.417969 0-8 3.582031-8 8v464c0 4.417969 3.582031 8 8 8h464c4.417969 0 8-3.582031 8-8v-464c0-4.417969-3.582031-8-8-8zm-8 16v80h-448v-80zm-448 448v-352h448v352zm0 0" fill="url(#b)"/><path d="m56 48h16v16h-16zm0 0" fill="url(#c)"/><path d="m88 48h16v16h-16zm0 0" fill="url(#d)"/><path d="m120 48h16v16h-16zm0 0" fill="url(#e)"/><path d="m416 48h16v16h-16zm0 0" fill="url(#f)"/><path d="m32 88h416c4.417969 0 8-3.582031 8-8v-48c0-4.417969-3.582031-8-8-8h-416c-4.417969 0-8 3.582031-8 8v48c0 4.417969 3.582031 8 8 8zm408-16h-272v-32h272zm-400-32h112v32h-112zm0 0" fill="url(#g)"/><path d="m178.152344 226.335938c9.371094-13.289063 7.285156-31.496094-4.851563-42.324219-12.136719-10.824219-30.464843-10.824219-42.601562 0-12.136719 10.828125-14.222657 29.035156-4.851563 42.324219-8.421875 3.929687-13.816406 12.371093-13.847656 21.664062v48c0 4.417969 3.582031 8 8 8h64c4.417969 0 8-3.582031 8-8v-48c-.03125-9.292969-5.425781-17.734375-13.847656-21.664062zm-26.152344-34.335938c8.835938 0 16 7.164062 16 16s-7.164062 16-16 16-16-7.164062-16-16 7.164062-16 16-16zm24 96h-48v-40c0-4.417969 3.582031-8 8-8h32c4.417969 0 8 3.582031 8 8zm0 0" fill="url(#h)"/><path d="m88 336h128c4.417969 0 8-3.582031 8-8v-176c0-4.417969-3.582031-8-8-8h-128c-4.417969 0-8 3.582031-8 8v176c0 4.417969 3.582031 8 8 8zm8-176h112v160h-112zm0 0" fill="url(#i)"/><path d="m272 152h32v16h-32zm0 0" fill="url(#j)"/><path d="m272 184h32v16h-32zm0 0" fill="url(#k)"/><path d="m272 216h32v16h-32zm0 0" fill="url(#l)"/><path d="m272 248h128v16h-128zm0 0" fill="url(#m)"/><path d="m272 280h128v16h-128zm0 0" fill="url(#n)"/><path d="m272 312h128v16h-128zm0 0" fill="url(#o)"/><path d="m320 216h80v16h-80zm0 0" fill="url(#p)"/><path d="m320 184h80v16h-80zm0 0" fill="url(#q)"/><path d="m320 152h80v16h-80zm0 0" fill="url(#r)"/><path d="m80 352h320v16h-320zm0 0" fill="url(#s)"/><path d="m80 416h320v16h-320zm0 0" fill="url(#t)"/><path d="m80 384h320v16h-320zm0 0" fill="url(#u)"/></svg>