<svg xmlns="http://www.w3.org/2000/svg" width="28.667" height="28.667"><path d="M18.486 18.104c1.034-1.013 1.775-2.531 2.115-4.648.455.083 1.053-.387 1.261-1.179.214-.813.462-2.178-.003-2.302a.587.587 0 0 0-.422.063v-2.26c.076-2.457-.26-4.829-2.939-5.856C18.009.915 17.977 0 17.977 0c-1.206 1.086-5.785 1.526-5.785 1.526l.052.014c-5.806.597-4.968 2.684-4.968 6.237v2.26a.58.58 0 0 0-.422-.063c-.463.124-.323 1.437-.109 2.251.209.798.921 1.321 1.377 1.229.347 2.223 1.041 3.703 1.995 4.67-4.443 1.625-7.604 5.728-7.604 10.543h23.641c-.002-4.84-3.192-8.957-7.668-10.563z" fill="#CCC"/></svg>