<svg height="480pt" viewBox="0 0 480 480" width="480pt" xmlns="http://www.w3.org/2000/svg"><path d="m8 104h464v-96h-464zm24-72h416v48h-416zm0 0" fill="#9bc9ff"/><path d="m216 152h-128v176h128zm-32 144h-64v-48c0-8.835938 7.164062-16 16-16h16c-13.253906 0-24-10.746094-24-24s10.746094-24 24-24 24 10.746094 24 24-10.746094 24-24 24h16c8.835938 0 16 7.164062 16 16zm0 0" fill="#9bc9ff"/><g fill="#1565d6"><path d="m472 0h-464c-4.417969 0-8 3.582031-8 8v464c0 4.417969 3.582031 8 8 8h464c4.417969 0 8-3.582031 8-8v-464c0-4.417969-3.582031-8-8-8zm-8 16v80h-448v-80zm-448 448v-352h448v352zm0 0"/><path d="m56 48h16v16h-16zm0 0"/><path d="m88 48h16v16h-16zm0 0"/><path d="m120 48h16v16h-16zm0 0"/><path d="m416 48h16v16h-16zm0 0"/><path d="m32 88h416c4.417969 0 8-3.582031 8-8v-48c0-4.417969-3.582031-8-8-8h-416c-4.417969 0-8 3.582031-8 8v48c0 4.417969 3.582031 8 8 8zm408-16h-272v-32h272zm-400-32h112v32h-112zm0 0"/><path d="m178.152344 226.335938c9.371094-13.289063 7.285156-31.496094-4.851563-42.324219-12.136719-10.824219-30.464843-10.824219-42.601562 0-12.136719 10.828125-14.222657 29.035156-4.851563 42.324219-8.421875 3.929687-13.816406 12.371093-13.847656 21.664062v48c0 4.417969 3.582031 8 8 8h64c4.417969 0 8-3.582031 8-8v-48c-.03125-9.292969-5.425781-17.734375-13.847656-21.664062zm-26.152344-34.335938c8.835938 0 16 7.164062 16 16s-7.164062 16-16 16-16-7.164062-16-16 7.164062-16 16-16zm24 96h-48v-40c0-4.417969 3.582031-8 8-8h32c4.417969 0 8 3.582031 8 8zm0 0"/><path d="m88 336h128c4.417969 0 8-3.582031 8-8v-176c0-4.417969-3.582031-8-8-8h-128c-4.417969 0-8 3.582031-8 8v176c0 4.417969 3.582031 8 8 8zm8-176h112v160h-112zm0 0"/><path d="m272 152h32v16h-32zm0 0"/><path d="m272 184h32v16h-32zm0 0"/><path d="m272 216h32v16h-32zm0 0"/><path d="m272 248h128v16h-128zm0 0"/><path d="m272 280h128v16h-128zm0 0"/><path d="m272 312h128v16h-128zm0 0"/><path d="m320 216h80v16h-80zm0 0"/><path d="m320 184h80v16h-80zm0 0"/><path d="m320 152h80v16h-80zm0 0"/><path d="m80 352h320v16h-320zm0 0"/><path d="m80 416h320v16h-320zm0 0"/><path d="m80 384h320v16h-320zm0 0"/></g></svg>