<svg height="640" viewBox="0 0 480 480" width="640" xmlns="http://www.w3.org/2000/svg" xmlns:xlink="http://www.w3.org/1999/xlink"><linearGradient id="a"><stop offset="0" stop-color="#fff33b"/><stop offset=".014" stop-color="#fee72e"/><stop offset=".042" stop-color="#fed51b"/><stop offset=".07" stop-color="#fdca10"/><stop offset=".1" stop-color="#fdc70c"/><stop offset=".4" stop-color="#f3903f"/><stop offset=".8" stop-color="#ed683c"/><stop offset="1" stop-color="#e93e3a"/></linearGradient><linearGradient id="b" gradientUnits="userSpaceOnUse" x1="240" x2="240" xlink:href="#a" y1="-15.672" y2="500.408"/><linearGradient id="c" gradientUnits="userSpaceOnUse" x1="64" x2="64" xlink:href="#a" y1="-17.024" y2="498.992"/><linearGradient id="d" gradientUnits="userSpaceOnUse" x1="96" x2="96" xlink:href="#a" y1="-16.904" y2="499.112"/><linearGradient id="e" gradientUnits="userSpaceOnUse" x1="128" x2="128" xlink:href="#a" y1="-16.776" y2="499.24"/><linearGradient id="f" gradientUnits="userSpaceOnUse" x1="424" x2="424" xlink:href="#a" y1="-15.64" y2="500.376"/><linearGradient id="g" gradientUnits="userSpaceOnUse" x1="240" x2="240" xlink:href="#a" y1="-14.848" y2="490.48"/><linearGradient id="h" gradientUnits="userSpaceOnUse" x1="152" x2="152" xlink:href="#a" y1="-16.776" y2="500.728"/><linearGradient id="i" gradientUnits="userSpaceOnUse" x1="152" x2="152" xlink:href="#a" y1="-16.304" y2="500.376"/><linearGradient id="j" gradientUnits="userSpaceOnUse" x1="288" x2="288" xlink:href="#a" y1="-15.088" y2="498.952"/><linearGradient id="k" gradientUnits="userSpaceOnUse" x1="288" x2="288" xlink:href="#a" y1="-14.84" y2="499.192"/><linearGradient id="l" gradientUnits="userSpaceOnUse" x1="288" x2="288" xlink:href="#a" y1="-14.6" y2="499.44"/><linearGradient id="m" gradientUnits="userSpaceOnUse" x1="336" x2="336" xlink:href="#a" y1="-8.096" y2="494.392"/><linearGradient id="n" gradientUnits="userSpaceOnUse" x1="336" x2="336" xlink:href="#a" y1="-7.136" y2="495.352"/><linearGradient id="o" gradientUnits="userSpaceOnUse" x1="336" x2="336" xlink:href="#a" y1="-6.176" y2="496.304"/><linearGradient id="p" gradientUnits="userSpaceOnUse" x1="360" x2="360" xlink:href="#a" y1="-11.616" y2="496.584"/><linearGradient id="q" gradientUnits="userSpaceOnUse" x1="360" x2="360" xlink:href="#a" y1="-12.216" y2="495.976"/><linearGradient id="r" gradientUnits="userSpaceOnUse" x1="360" x2="360" xlink:href="#a" y1="-12.824" y2="495.368"/><linearGradient id="s" gradientUnits="userSpaceOnUse" x1="240" x2="240" xlink:href="#a" y1="10.376" y2="491.248"/><linearGradient id="t" gradientUnits="userSpaceOnUse" x1="240" x2="240" xlink:href="#a" y1="14.96" y2="495.832"/><linearGradient id="u" gradientUnits="userSpaceOnUse" x1="240" x2="240" xlink:href="#a" y1="12.664" y2="493.544"/><path d="M472 0H8a8 8 0 0 0-8 8v464a8 8 0 0 0 8 8h464a8 8 0 0 0 8-8V8a8 8 0 0 0-8-8zm-8 16v80H16V16zM16 464V112h448v352zm0 0" fill="url(#b)"/><path d="M56 48h16v16H56zm0 0" fill="url(#c)"/><path d="M88 48h16v16H88zm0 0" fill="url(#d)"/><path d="M120 48h16v16h-16zm0 0" fill="url(#e)"/><path d="M416 48h16v16h-16zm0 0" fill="url(#f)"/><path d="M32 88h416a8 8 0 0 0 8-8V32a8 8 0 0 0-8-8H32a8 8 0 0 0-8 8v48a8 8 0 0 0 8 8zm408-16H168V40h272zM40 40h112v32H40zm0 0" fill="url(#g)"/><path d="M178.152 226.336c9.371-13.29 7.286-31.496-4.851-42.324-12.137-10.825-30.465-10.825-42.602 0-12.137 10.828-14.222 29.035-4.851 42.324A23.996 23.996 0 0 0 112 248v48a8 8 0 0 0 8 8h64a8 8 0 0 0 8-8v-48a23.996 23.996 0 0 0-13.848-21.664zM152 192c8.836 0 16 7.164 16 16s-7.164 16-16 16-16-7.164-16-16 7.164-16 16-16zm24 96h-48v-40a8 8 0 0 1 8-8h32a8 8 0 0 1 8 8zm0 0" fill="url(#h)"/><path d="M88 336h128a8 8 0 0 0 8-8V152a8 8 0 0 0-8-8H88a8 8 0 0 0-8 8v176a8 8 0 0 0 8 8zm8-176h112v160H96zm0 0" fill="url(#i)"/><path d="M272 152h32v16h-32zm0 0" fill="url(#j)"/><path d="M272 184h32v16h-32zm0 0" fill="url(#k)"/><path d="M272 216h32v16h-32zm0 0" fill="url(#l)"/><path d="M272 248h128v16H272zm0 0" fill="url(#m)"/><path d="M272 280h128v16H272zm0 0" fill="url(#n)"/><path d="M272 312h128v16H272zm0 0" fill="url(#o)"/><path d="M320 216h80v16h-80zm0 0" fill="url(#p)"/><path d="M320 184h80v16h-80zm0 0" fill="url(#q)"/><path d="M320 152h80v16h-80zm0 0" fill="url(#r)"/><path d="M80 352h320v16H80zm0 0" fill="url(#s)"/><path d="M80 416h320v16H80zm0 0" fill="url(#t)"/><path d="M80 384h320v16H80zm0 0" fill="url(#u)"/></svg>