<svg height="640" viewBox="0 0 480 480" width="640" xmlns="http://www.w3.org/2000/svg"><path d="M8 104h464V8H8zm24-72h416v48H32zm184 120H88v176h128zm-32 144h-64v-48c0-8.836 7.164-16 16-16h16c-13.254 0-24-10.746-24-24s10.746-24 24-24 24 10.746 24 24-10.746 24-24 24h16c8.836 0 16 7.164 16 16zm0 0" fill="#9bc9ff"/><g fill="#57a4ff"><path d="M472 0H8a8 8 0 0 0-8 8v464a8 8 0 0 0 8 8h464a8 8 0 0 0 8-8V8a8 8 0 0 0-8-8zm-8 16v80H16V16zM16 464V112h448v352zm0 0"/><path d="M56 48h16v16H56zm32 0h16v16H88zm32 0h16v16h-16zm296 0h16v16h-16zm0 0"/><path d="M32 88h416a8 8 0 0 0 8-8V32a8 8 0 0 0-8-8H32a8 8 0 0 0-8 8v48a8 8 0 0 0 8 8zm408-16H168V40h272zM40 40h112v32H40zm138.152 186.336c9.371-13.29 7.286-31.496-4.851-42.324-12.137-10.825-30.465-10.825-42.602 0-12.137 10.828-14.222 29.035-4.851 42.324A23.996 23.996 0 0 0 112 248v48a8 8 0 0 0 8 8h64a8 8 0 0 0 8-8v-48a23.996 23.996 0 0 0-13.848-21.664zM152 192c8.836 0 16 7.164 16 16s-7.164 16-16 16-16-7.164-16-16 7.164-16 16-16zm24 96h-48v-40a8 8 0 0 1 8-8h32a8 8 0 0 1 8 8zm0 0"/><path d="M88 336h128a8 8 0 0 0 8-8V152a8 8 0 0 0-8-8H88a8 8 0 0 0-8 8v176a8 8 0 0 0 8 8zm8-176h112v160H96zm176-8h32v16h-32zm0 32h32v16h-32zm0 32h32v16h-32zm0 32h128v16H272zm0 32h128v16H272zm0 32h128v16H272zm48-96h80v16h-80zm0-32h80v16h-80zm0-32h80v16h-80zM80 352h320v16H80zm0 64h320v16H80zm0-32h320v16H80zm0 0"/></g></svg>